<?xml version="1.0" standalone="no"?>
<!DOCTYPE svg PUBLIC "-//W3C//DTD SVG 20010904//EN"
 "http://www.w3.org/TR/2001/REC-SVG-20010904/DTD/svg10.dtd">
<svg version="1.0" xmlns="http://www.w3.org/2000/svg"
 width="700.000000pt" height="700.000000pt" viewBox="0 0 700.000000 700.000000"
 preserveAspectRatio="xMidYMid meet">
<metadata>
Created by potrace 1.11, written by Peter Selinger 2001-2013
</metadata>
<g transform="translate(0.000000,700.000000) scale(0.100000,-0.100000)"
fill="#000000" stroke="none">
<path d="M2366 6467 c-50 -12 -99 -62 -155 -156 -82 -138 -114 -161 -270 -196
-101 -22 -124 -33 -221 -106 -74 -56 -188 -119 -217 -119 -23 0 -104 -62 -119
-92 -25 -48 -22 -152 10 -292 32 -143 36 -212 13 -247 -10 -14 -48 -43 -87
-64 -79 -43 -104 -80 -94 -136 22 -111 156 -279 325 -405 80 -60 104 -84 81
-84 -4 0 -47 16 -94 35 -137 55 -203 66 -408 70 -243 4 -359 -22 -406 -92 -11
-17 -26 -60 -33 -95 -20 -105 -31 -126 -126 -233 -64 -72 -71 -128 -31 -242
29 -81 31 -104 14 -136 -24 -46 -98 -90 -275 -163 -171 -71 -254 -126 -267
-179 -14 -54 36 -112 141 -163 37 -19 75 -37 84 -42 9 -5 56 -25 105 -45 163
-68 224 -116 224 -178 0 -13 -11 -54 -25 -91 -46 -122 -33 -181 66 -286 51
-55 77 -110 90 -193 13 -79 42 -121 101 -147 73 -31 109 -35 328 -34 189 0
212 2 302 27 54 14 120 38 147 52 67 33 161 75 161 70 0 -2 -37 -29 -82 -61
-170 -119 -287 -228 -360 -339 -88 -134 -82 -212 23 -269 86 -48 87 -49 102
-86 16 -41 13 -81 -13 -199 -40 -183 -45 -253 -19 -310 22 -49 64 -80 165
-120 49 -19 107 -53 150 -87 89 -71 170 -109 269 -129 132 -27 162 -51 257
-205 56 -90 91 -125 140 -138 54 -15 111 -7 213 28 135 46 170 53 290 56 160
3 214 17 318 78 202 120 287 293 303 619 3 67 7 143 8 170 3 52 12 73 13 29 1
-52 14 -307 19 -352 6 -62 40 -183 65 -233 50 -98 147 -193 259 -251 86 -44
142 -56 286 -61 135 -4 148 -6 241 -39 125 -44 182 -57 225 -51 80 12 115 42
184 157 85 143 111 162 262 197 112 25 152 45 248 121 51 41 100 69 159 91
186 71 210 137 149 407 -46 205 -39 238 73 302 105 59 120 101 75 203 -47 106
-162 233 -330 362 -50 39 -87 71 -82 73 5 2 45 -12 88 -32 161 -70 221 -81
472 -81 230 0 297 12 354 64 33 31 41 50 60 141 18 85 31 110 95 183 92 105
102 151 57 270 -34 90 -33 118 6 162 35 40 71 60 238 131 229 97 301 153 285
223 -13 60 -94 112 -330 212 -128 55 -186 90 -207 127 -24 40 -23 59 7 145 43
121 35 171 -40 253 -73 80 -101 129 -111 193 -12 79 -27 117 -60 148 -56 53
-131 67 -344 67 -185 0 -277 -10 -375 -40 -48 -15 -396 -185 -423 -207 -7 -5
-14 -8 -17 -6 -2 3 83 59 188 126 208 132 327 231 401 336 85 120 107 193 77
250 -7 14 -44 42 -82 63 -38 20 -76 48 -85 61 -19 29 -21 109 -4 178 6 28 14
59 16 70 2 11 6 31 9 45 15 64 17 79 19 132 6 117 -33 166 -171 220 -47 19
-113 55 -150 83 -130 99 -178 121 -301 141 -63 10 -118 42 -160 90 -23 27 -42
53 -42 57 0 18 -91 144 -119 164 -30 23 -93 42 -121 38 -60 -10 -88 -17 -185
-50 -73 -25 -134 -38 -180 -41 -215 -11 -243 -14 -295 -34 -129 -50 -265 -170
-316 -278 -46 -98 -66 -189 -90 -407 -7 -69 -14 -83 -15 -34 -1 19 -2 45 -4
59 -2 14 -6 61 -9 105 -3 44 -12 104 -20 133 -8 29 -14 53 -14 55 -1 9 -26 70
-45 106 -57 114 -229 246 -362 278 -22 5 -99 11 -225 17 -65 3 -115 13 -210
44 -141 46 -179 52 -234 39z"/>
</g>
</svg>
